# xmcd
#
# Track frame offsets: 
#        150
#        9202
#        21191
#        33121
#        43531
#        53399
#        68168
#        80049
#        92731
#        104793
#
# Disc length: 1642 seconds
#
# Revision: 0
# Processed by: cddbd v1.4PL0 Copyright (c) Steve Scherf et al.
# Submitted via: ExactAudioCopy v0.95a3
#
DISCID=7106680a
DTITLE=Carl Perkins - All Shook Up
DYEAR=1996
DGENRE=Rock
TTITLE0=Hound Dog
TTITLE1=Whole Lotta' Shakin' Goin' On
TTITLE2=Lucille
TTITLE3=Jailhouse Rock
TTITLE4=All Shook Up
TTITLE5=That's Alright Mama
TTITLE6=Bird Dog
TTITLE7=Rock Island Line
TTITLE8=Singing the Blues
TTITLE9=Got My Mojo Workin'
EXTD=
EXTT0=
EXTT1=
EXTT2=
EXTT3=
EXTT4=
EXTT5=
EXTT6=
EXTT7=
EXTT8=
EXTT9=
PLAYORDER=
